<svg width="17" height="17" viewBox="0 0 17 17" fill="none" xmlns="http://www.w3.org/2000/svg">
<path d="M15.3932 16.614L9.88066 11.1015C9.44316 11.4515 8.94004 11.7286 8.37129 11.9328C7.80254 12.1369 7.19733 12.239 6.55566 12.239C4.96608 12.239 3.62091 11.6883 2.52016 10.587C1.41941 9.48568 0.868747 8.14051 0.868164 6.55151C0.868164 4.96193 1.41883 3.61676 2.52016 2.51601C3.6215 1.41526 4.96666 0.864597 6.55566 0.864014C8.14525 0.864014 9.49041 1.41468 10.5912 2.51601C11.6919 3.61735 12.2426 4.96251 12.2432 6.55151C12.2432 7.19318 12.1411 7.79839 11.9369 8.36714C11.7327 8.93589 11.4557 9.43901 11.1057 9.87651L16.6182 15.389L15.3932 16.614ZM6.55566 10.489C7.64941 10.489 8.57925 10.1061 9.34516 9.34014C10.1111 8.57422 10.4937 7.64468 10.4932 6.55151C10.4932 5.45776 10.1102 4.52793 9.34429 3.76201C8.57837 2.9961 7.64883 2.61343 6.55566 2.61401C5.46191 2.61401 4.53208 2.99697 3.76616 3.76289C3.00025 4.52881 2.61758 5.45835 2.61816 6.55151C2.61816 7.64526 3.00112 8.5751 3.76704 9.34101C4.53296 10.1069 5.4625 10.4896 6.55566 10.489Z" fill="black"/>
</svg>
